# xmcd
#
# Track frame offsets:
#	150
#	17366
#	31456
#	47239
#	63068
#	76043
#	97535
#	126072
#	146795
#	163202
#	180180
#	192142
#	211403
#	224095
#	244836
#	257473
#	272415
#	287848
#
# Disc length: 4086 seconds
#
# Revision: 0
# Processed by: cddbd v1.5.2PL0 Copyright (c) Steve Scherf et al.
# Submitted via: EasyCDDAExtractor 16.0.6.1
#
DISCID=f20ff412
DTITLE=Πλασταράς Νίκος - Ο Πλασταράς τραγουδά Πλασταρά
DYEAR=2008
DGENRE=Ρεμπέτικη
TTITLE0=Οι μάγκες
TTITLE1=Ο ναυτικός
TTITLE2=Το κερί
TTITLE3=Πούλα τρέλλα
TTITLE4=Νυχτόσημο
TTITLE5=Ο παντρεμένος
TTITLE6=Άγιος Πέτρος
TTITLE7=Μαγκιόρα μου
TTITLE8=Ο μπαγλαμάς
TTITLE9=Το καπηλειό
TTITLE10=Όποιος ζει με μιά γυναίκα
TTITLE11=Ο νοικύρης
TTITLE12=Τζιβαέρι
TTITLE13=Γυναίκα φίρμα
TTITLE14=Ο πρωθυπουργός
TTITLE15=Το σπιτάκι
TTITLE16=Το όνειρο
TTITLE17=Το πουλί
EXTD=
EXTT0=
EXTT1=
EXTT2=
EXTT3=
EXTT4=
EXTT5=
EXTT6=
EXTT7=
EXTT8=
EXTT9=
EXTT10=
EXTT11=
EXTT12=
EXTT13=
EXTT14=
EXTT15=
EXTT16=
EXTT17=
PLAYORDER=
